<svg width="39" height="31" viewBox="0 0 39 31" fill="none" xmlns="http://www.w3.org/2000/svg">
<g clip-path="url(#clip0_90_245)">
<path d="M33.0368 3.01245C30.4744 1.82182 27.7694 0.977141 24.9908 0.5C24.6105 1.18988 24.2665 1.89967 23.9601 2.6264C21.0003 2.17373 17.9904 2.17373 15.0306 2.6264C14.7241 1.89974 14.38 1.18996 14 0.5C11.2196 0.981171 8.51274 1.82785 5.94782 3.01868C0.855799 10.665 -0.524569 18.1214 0.165615 25.472C3.14763 27.7082 6.48536 29.4088 10.0337 30.5C10.8327 29.4093 11.5397 28.2523 12.1472 27.0411C10.9933 26.6037 9.87962 26.064 8.81899 25.4284C9.09813 25.2229 9.37114 25.0112 9.63494 24.8057C12.7211 26.2788 16.0895 27.0425 19.5 27.0425C22.9104 27.0425 26.2788 26.2788 29.365 24.8057C29.6319 25.0268 29.9049 25.2385 30.181 25.4284C29.1183 26.0651 28.0025 26.6058 26.8466 27.0442C27.4534 28.2548 28.1604 29.4109 28.9601 30.5C32.5115 29.4132 35.8518 27.7133 38.8343 25.4751C39.6441 16.9508 37.4509 9.56289 33.0368 3.01245ZM13.0214 20.9514C11.0981 20.9514 9.50917 19.1799 9.50917 17.0006C9.50917 14.8213 11.0429 13.0342 13.0153 13.0342C14.9877 13.0342 16.5644 14.8213 16.5306 17.0006C16.4969 19.1799 14.9816 20.9514 13.0214 20.9514ZM25.9785 20.9514C24.0521 20.9514 22.4693 19.1799 22.4693 17.0006C22.4693 14.8213 24.003 13.0342 25.9785 13.0342C27.954 13.0342 29.5184 14.8213 29.4846 17.0006C29.4509 19.1799 27.9386 20.9514 25.9785 20.9514Z" fill="#FAF2FD"/>
</g>
<defs>
<clipPath id="clip0_90_245">
<rect width="39" height="30" fill="white" transform="translate(0 0.5)"/>
</clipPath>
</defs>
</svg>
