<svg width="48" height="43" viewBox="0 0 48 43" fill="none" xmlns="http://www.w3.org/2000/svg">
<path d="M17.4725 12.3358C17.6262 11.3169 17.2013 10.408 16.5234 10.3057C15.8455 10.2035 15.1713 10.9465 15.0176 11.9654C14.8639 12.9842 15.2888 13.8931 15.9667 13.9954C16.6446 14.0977 17.3187 13.3546 17.4725 12.3358Z" fill="#151216"/>
<path d="M27.2053 11.6745C27.4282 10.1969 26.8126 8.87895 25.8303 8.73074C24.8479 8.58253 23.8709 9.66018 23.6479 11.1377C23.425 12.6153 24.0406 13.9333 25.0229 14.0815C26.0053 14.2297 26.9823 13.152 27.2053 11.6745Z" fill="#151216"/>
<path d="M12.9546 16.2414C12.9546 16.2414 8.02644 15.5501 5.35054 16.7394C5.35054 16.7394 4.53291 16.9921 4.57008 18.4118C4.57008 18.4118 4.53291 21.0432 7.49127 21.8534C7.94468 21.9797 8.4204 21.9872 8.88125 21.8905C10.1374 21.6229 12.8133 20.835 13.7648 18.8281C13.7648 18.8281 14.1662 18.0774 14.0695 17.178C14.0695 17.178 13.9655 16.3678 12.962 16.2414H12.9546Z" fill="#151216"/>
<path d="M34.0421 8.08008C33.3062 10.1688 31.8642 13.5062 29.3221 16.8585C29.3221 16.8585 28.2963 18.137 29.3221 19.3561C29.3221 19.3561 34.0644 23.2956 39.4013 20.2777" stroke="#151216" stroke-width="2.22992" stroke-miterlimit="10" stroke-linecap="round"/>
<path d="M39.4088 20.6631C40.4495 20.0759 41.5198 19.2137 42.5753 18.0095C42.5753 18.0095 45.5634 14.4268 46.2844 11.6097C46.9683 9.60273 45.5783 9.05268 45.5783 9.05268C42.3672 7.5512 38.0188 3.86441 36.4802 2.51903C35.8186 1.93925 34.9342 1.64934 34.0571 1.76084C31.8048 2.0433 28.8687 3.67858 28.8687 3.67858C23.621 6.62208 12.1667 8.28707 12.1667 8.28707L11.3342 13.178C11.3342 13.178 5.25389 13.178 2.74151 14.345C2.28809 14.5532 2.00565 15.014 2.01308 15.512C2.03538 17.3034 2.20634 21.9862 3.33617 24.5432C3.33617 24.5432 3.84906 25.8886 5.57353 25.8886C5.57353 25.8886 8.35348 25.8143 9.60224 27.0407C9.60224 27.0407 10.7841 33.1879 8.6954 37.8187M32.563 27.9552C32.563 27.9552 30.7493 28.4012 27.8653 28.0593C27.2929 26.3645 27.4713 24.0157 27.4713 24.0157C26.8766 22.0459 24.6542 22.5959 24.6542 22.5959C22.1195 23.1609 22.3796 28.1484 22.3796 28.1484C22.3796 28.1484 18.7969 27.7917 18.1131 30.5493C18.1131 30.5493 16.8569 35.3288 19.6889 40.0934C19.6889 40.0934 19.9342 40.7326 21.6587 40.5617L23.5318 40.3536C37.4539 37.9898 40.1893 31.9913 40.1893 20.5073" stroke="#151216" stroke-width="2.97323" stroke-miterlimit="10" stroke-linecap="round"/>
<path d="M21.2797 32.5933L17.9943 32.8014" stroke="#151216" stroke-width="1.48661" stroke-miterlimit="10" stroke-linecap="round"/>
<path d="M22.1939 36.1835L17.9943 36.4511" stroke="#151216" stroke-width="1.48661" stroke-miterlimit="10" stroke-linecap="round"/>
</svg>
