<svg width="138" height="104" viewBox="0 0 138 104" fill="none" xmlns="http://www.w3.org/2000/svg">
<path d="M125.758 102.517C121.975 102.583 119.01 101.811 116.862 100.201C114.765 98.5895 113.669 96.2938 113.575 93.3136L113.394 87.608C113.39 87.4904 113.413 87.3919 113.461 87.3126C113.561 87.2323 113.688 87.1909 113.841 87.1882L122.352 87.0391C122.506 87.0364 122.635 87.0734 122.739 87.15C122.844 87.2267 122.898 87.3238 122.902 87.4415L123.111 94.0293C123.132 94.696 123.354 95.2414 123.776 95.6655C124.249 96.0496 124.869 96.2349 125.635 96.2215C126.351 96.209 126.933 96.0026 127.38 95.6024C127.827 95.163 128.039 94.61 128.018 93.9434L127.878 89.5319C127.852 88.7084 127.599 87.9673 127.117 87.3088C126.686 86.6101 126 85.9355 125.059 85.285L118.151 80.3446C116.53 79.2352 115.313 77.9618 114.5 76.5243C113.739 75.0859 113.331 73.504 113.276 71.7787L113.201 69.4258C113.112 66.6025 114.064 64.369 116.058 62.7254C118.05 61.0427 120.861 60.1695 124.491 60.1059C128.222 60.0405 131.161 60.7934 133.308 62.3644C135.455 63.9355 136.573 66.1327 136.663 68.956L136.801 73.3087C136.804 73.4264 136.756 73.5253 136.657 73.6055C136.557 73.6857 136.43 73.7272 136.277 73.7299L128.073 73.8736C127.919 73.8763 127.79 73.8393 127.685 73.7627C127.632 73.6851 127.603 73.5875 127.599 73.4699L127.445 68.5878C127.422 67.882 127.175 67.337 126.702 66.9529C126.281 66.568 125.712 66.3818 124.997 66.3943C124.23 66.4077 123.623 66.6145 123.175 67.0147C122.779 67.414 122.592 67.9666 122.614 68.6724L122.696 71.2605C122.722 72.084 122.951 72.8451 123.382 73.5438C123.865 74.2416 124.55 74.8965 125.439 75.5087L132.42 80.3301C134.146 81.5162 135.364 82.8288 136.074 84.2681C136.834 85.6672 137.247 87.3864 137.312 89.4255L137.416 92.7194C137.511 95.6996 136.537 98.0708 134.496 99.8329C132.454 101.556 129.541 102.45 125.758 102.517Z" fill="#FAF2FD"/>
<path d="M92.5231 101.79C92.3697 101.79 92.2418 101.752 92.1396 101.676C92.0373 101.6 91.9862 101.505 91.9862 101.391L91.2126 62.447C91.2126 62.333 91.2638 62.238 91.366 62.1619C91.4683 62.0859 91.5961 62.0479 91.7495 62.0479L111.468 61.4729C111.57 61.4729 111.672 61.5109 111.775 61.5869C111.877 61.6249 111.928 61.701 111.928 61.815V67.2315C111.928 67.3455 111.877 67.4405 111.775 67.5166C111.672 67.5546 111.57 67.5736 111.468 67.5736H100.788L101.343 76.6509H109.723C109.876 76.6509 110.004 76.6889 110.106 76.7649C110.208 76.841 110.26 76.917 110.26 76.993L109.704 84.6331C109.704 84.7471 109.653 84.8422 109.55 84.9182C109.448 84.9562 109.32 84.9752 109.167 84.9752H101.343L101.065 95.6893L111.468 95.1143C111.57 95.1143 111.672 95.1523 111.775 95.2284C111.877 95.2664 111.928 95.3424 111.928 95.4564V101.448C111.928 101.562 111.877 101.657 111.775 101.733C111.672 101.771 111.57 101.79 111.468 101.79H92.5231Z" fill="#FAF2FD"/>
<path d="M62.7158 101.447C62.7158 101.561 62.6647 101.656 62.5624 101.732C62.5113 101.77 62.409 101.789 62.2556 101.789H53.8122C53.6588 101.789 53.531 101.77 53.4287 101.732C53.3776 101.656 53.352 101.561 53.352 101.447V63.0042C53.352 62.8141 53.4287 62.6621 53.5821 62.548C53.7355 62.434 53.94 62.377 54.1957 62.377L67.3145 62.952C67.5701 62.952 67.7747 63.009 67.9281 63.1231C68.0815 63.1991 68.1582 63.3321 68.1582 63.5222L71.1527 90.3289H71.6896L74.2207 62.9367C74.2718 62.7466 74.3485 62.6136 74.4508 62.5376C74.6041 62.4235 74.8087 62.3665 75.0643 62.3665L87.8731 62.085C88.1287 62.085 88.3333 62.142 88.4867 62.256C88.6401 62.37 88.7168 62.5221 88.7168 62.7121L89.4903 101.447C89.4903 101.561 89.4392 101.656 89.3369 101.732C89.2346 101.77 89.1068 101.789 88.9534 101.789H81.2835C81.1301 101.789 81.0023 101.77 80.9 101.732C80.8489 101.656 80.8233 101.561 80.8233 101.447L80.0498 70.6325H79.5129L76.2915 101.447C76.2915 101.561 76.2404 101.656 76.1381 101.732C76.0359 101.808 75.908 101.846 75.7546 101.846H67.0876C66.9342 101.846 66.7808 101.808 66.6274 101.732C66.5252 101.656 66.474 101.561 66.474 101.447L63.0193 71.1574H62.329L62.7158 101.447Z" fill="#FAF2FD"/>
<path d="M35.8624 101.515C35.8672 101.629 35.8201 101.725 35.7211 101.804C35.6205 101.844 35.4935 101.866 35.3402 101.869L27.5974 102.05C27.4441 102.053 27.3147 102.018 27.2093 101.945C27.1039 101.871 27.0743 101.777 27.1206 101.662L30.101 63.1327C30.0914 62.9048 30.1608 62.732 30.3093 62.6145C30.509 62.4957 30.7365 62.4334 30.9921 62.4274L45.0211 62.6756C45.3278 62.6684 45.5602 62.7201 45.7183 62.8305C45.8764 62.9409 45.9858 63.1095 46.0466 63.3362L51.1923 101.101C51.2482 101.214 51.2267 101.309 51.1277 101.388C51.0287 101.466 50.9025 101.507 50.7492 101.51L42.6997 101.698C42.5464 101.702 42.4178 101.686 42.314 101.65C42.2086 101.576 42.1535 101.483 42.1487 101.369L38.2251 69.4122L37.8418 69.4212L35.8624 101.515ZM28.5778 87.0816L47.4365 86.6422L47.6792 92.398L28.8205 92.8374L28.5778 87.0816Z" fill="#FAF2FD"/>
<path d="M9.19633 102.321C6.94737 102.275 4.32545 101.534 2.99826 100.1C1.72362 98.6282 1.13415 96.6196 1.22987 94.0739L2.97017 69.9657C3.07588 67.154 4.23139 64.9915 6.4367 63.4783C8.64201 61.9651 11.6103 61.2473 15.3415 61.3248C18.8683 61.3981 21.5735 62.2338 23.4572 63.832C25.3921 65.4312 26.3066 67.6367 26.2009 70.4483L25.933 77.0166C25.9288 77.1306 25.8741 77.2245 25.769 77.2984C25.6653 77.3343 25.5368 77.3506 25.3835 77.3474L17.1799 77.7329C17.0266 77.7297 16.8995 77.708 16.7987 77.6679C16.7504 77.5909 16.7285 77.4953 16.7327 77.3814L17.0242 69.6302C17.0499 68.9463 16.8647 68.4291 16.4687 68.0787C16.0741 67.6902 15.519 67.4886 14.8034 67.4737C14.0878 67.4588 13.5184 67.6371 13.0952 68.0086C12.7246 68.3431 12.5264 68.8523 12.5007 69.5363L11.6114 93.1885C11.5857 93.8725 11.7957 94.4092 12.2414 94.7987C12.6872 95.1882 13.2934 95.3909 14.0601 95.4069C14.8267 95.4228 15.421 95.264 15.8427 94.9306C16.317 94.5602 16.567 94.033 16.5928 93.3491L16.8349 86.9088L25.5645 87.3754L25.0266 101.681C25.0223 101.795 24.9676 101.889 24.8625 101.963C24.7589 101.998 24.656 102.015 24.5537 102.013L15.9763 101.852C15.823 101.849 15.6959 101.827 15.5951 101.787C15.4957 101.709 15.4482 101.613 15.4525 101.499L16.4663 96.7117L15.007 98.7918C14.2017 99.8017 13.5342 100.548 13.0045 101.032C12.4749 101.515 11.9253 101.846 11.3559 102.024C10.7851 102.24 10.0653 102.34 9.19633 102.321ZM14.9556 81.2375C14.9613 81.0855 15.0167 80.9726 15.1217 80.8987C15.2779 80.8259 15.4583 80.7916 15.6627 80.7959L25.093 81.5477C25.2975 81.552 25.4487 81.6121 25.5466 81.7283C25.6971 81.8074 25.7695 81.923 25.7638 82.075L25.5645 87.3754L15.4441 87.1651C15.2908 87.1619 15.1637 87.1403 15.0629 87.1001C15.0133 87.0611 14.938 87.0215 14.8372 86.9814C14.7875 86.9423 14.7648 86.8658 14.7691 86.7518L14.9556 81.2375Z" fill="#FAF2FD"/>
<path fill-rule="evenodd" clip-rule="evenodd" d="M88.3459 57.7291C88.4204 57.8361 88.5155 57.9277 88.6253 57.998C88.9186 58.186 89.2487 58.2765 89.6157 58.2696L103.289 58.0116C103.778 58.0024 104.156 57.8594 104.423 57.5826C104.743 57.2505 104.899 56.8671 104.891 56.4324L104.139 16.551C104.116 15.3606 105.063 14.3774 106.253 14.3549L115.569 14.1792C116.059 14.1699 116.437 14.0269 116.703 13.7501C116.97 13.4734 117.1 13.1448 117.093 12.7645L116.889 1.99064C116.882 1.61031 116.74 1.28688 116.463 1.02035C116.186 0.753821 115.803 0.62517 115.314 0.634402L80.872 0.501221C80.3827 0.510452 80.0047 0.653462 79.738 0.93025C79.4713 1.20704 79.3415 1.53559 79.3487 1.91592L79.552 13.4727C79.5591 13.853 79.7012 14.1765 79.9782 14.443C80.2551 14.7095 80.6383 14.8382 81.1276 14.829L88.5002 14.6899C89.7632 14.666 90.776 15.7284 90.6918 16.9889L88.037 56.7504C88.0439 57.1171 88.1469 57.4434 88.3459 57.7291ZM3.71827 4.66147C6.03741 2.26834 10.4067 1.0297 14.7132 0.967203C14.7133 0.967202 14.7133 0.967154 14.7133 0.967095C14.7133 0.967035 14.7134 0.966987 14.7134 0.966986L14.814 0.965955L24.6075 0.86555L24.9451 0.862089C24.9458 0.862082 24.9464 0.862653 24.9464 0.863365C24.9464 0.864069 24.947 0.864637 24.9477 0.864641C29.0359 0.885076 32.218 2.04551 34.4942 4.34595C36.8332 6.70981 38.0258 10.1437 38.0719 14.6475L38.3853 45.2169C38.4321 49.775 37.3107 53.2868 35.0213 55.7524C32.7927 58.0991 29.635 59.3245 25.5481 59.4287C25.5474 59.4287 25.5468 59.4293 25.5468 59.43C25.5468 59.4307 25.5463 59.4313 25.5455 59.4313L25.208 59.4348L15.0118 59.5393C15.0074 59.5394 15.0038 59.543 15.0038 59.5474C15.0038 59.5518 15.0002 59.5554 14.9958 59.5555C10.6611 59.5984 7.61091 58.4358 5.2262 56.0739C2.83945 53.6562 1.62271 50.1683 1.57598 45.6102L0.281676 15.035C0.235502 10.5311 1.38103 7.07327 3.71827 4.66147ZM25.1063 49.5183C25.6446 49.5128 26.0732 49.3184 26.3923 48.9353C26.7646 48.4973 26.9471 47.9256 26.9399 47.2202L26.5887 12.9607C26.5826 12.3719 26.4237 11.8956 26.112 11.5319C26.0457 11.4545 25.9783 11.3778 25.9104 11.3018C25.5965 10.9507 25.1967 10.7775 24.7109 10.782L24.7092 10.782L14.9294 10.8823C14.4326 10.8874 14.0275 11.0691 13.7141 11.4275C13.6469 11.5044 13.5801 11.582 13.5144 11.6603C13.2035 12.0305 13.051 12.5102 13.057 13.0994L13.0845 47.3623C13.0917 48.0677 13.2898 48.6355 13.6787 49.0656C14.0114 49.4412 14.4515 49.6267 14.999 49.6219L15.0027 49.6219L25.1063 49.5183ZM56.4653 57.858C56.7827 57.5233 56.9356 57.1387 56.9239 56.7041L54.8327 40.9226C54.6646 39.6538 55.6325 38.5188 56.9119 38.4844L62.0739 38.3457C66.4769 38.2274 72.5274 37.118 74.7064 35.2112C76.8855 33.3044 77.9151 30.1238 77.7954 25.6693L77.4495 12.795C77.3313 8.39494 76.1059 5.3021 73.7732 3.51649C71.4935 1.6751 68.1793 0.812821 63.8307 0.929659L44.5771 1.44696C44.1422 1.45865 43.7661 1.63184 43.4487 1.96654C43.1842 2.24545 43.0578 2.60219 43.0695 3.03677L40.9172 57.1568C40.9271 57.5235 41.0326 57.8489 41.2339 58.1331C41.3093 58.2395 41.4051 58.3305 41.5161 58.3989C41.8183 58.5849 42.1761 58.6723 42.5896 58.6612L55.3347 58.2961C55.824 58.2829 56.2008 58.1369 56.4653 57.858ZM65.8556 27.7025C65.5396 28.0915 65.1099 28.2934 64.5663 28.308L59.1656 28.4531C57.9754 28.485 56.9847 27.5461 56.9527 26.3559L56.6 13.2286C56.568 12.0384 57.5069 11.0477 58.6971 11.0157L64.0978 10.8706C64.5894 10.8574 64.9968 11.0242 65.3201 11.3712C65.3896 11.4458 65.4588 11.5211 65.5264 11.5975C65.8479 11.9613 66.0173 12.4627 66.0344 13.1017L66.3803 25.976C66.3993 26.6822 66.2244 27.2577 65.8556 27.7025ZM119.957 1.51446C119.69 1.7911 119.561 2.14675 119.569 2.58141L119.749 12.435C119.771 13.631 120.762 14.5805 121.958 14.5507L134.348 14.2412C135.477 14.213 136.393 13.3181 136.448 12.19L136.927 2.26361C136.92 1.89752 136.799 1.59137 136.563 1.34514C136.472 1.25099 136.378 1.15979 136.28 1.07441C136.017 0.847246 135.68 0.737442 135.267 0.744998L121.171 1.00308C120.682 1.01203 120.277 1.1825 119.957 1.51446ZM120.559 56.6966L119.922 21.8927C119.904 20.9221 120.538 20.0593 121.469 19.7852L133.384 16.2776C134.806 15.8588 136.217 16.9682 136.146 18.4495L134.313 56.4448C134.321 56.8795 134.165 57.2628 133.845 57.5947C133.578 57.8714 133.2 58.0142 132.71 58.0231L122.219 58.2152C121.805 58.2228 121.448 58.1323 121.148 57.9437C121.037 57.8744 120.942 57.7826 120.868 57.6755C120.669 57.3897 120.566 57.0634 120.559 56.6966Z" fill="#FAF2FD"/>
</svg>
