<svg width="31" height="29" viewBox="0 0 31 29" fill="none" xmlns="http://www.w3.org/2000/svg">
<mask id="mask0_90_249" style="mask-type:luminance" maskUnits="userSpaceOnUse" x="0" y="0" width="31" height="29">
<path d="M30.12 0.0600586H0V28.9401H30.12V0.0600586Z" fill="white"/>
</mask>
<g mask="url(#mask0_90_249)">
<path fill-rule="evenodd" clip-rule="evenodd" d="M4.6 3.89006C7.27 1.43006 10.76 0.0600586 14.39 0.0600586V0.0800586C17.08 0.0800586 19.72 0.830059 22 2.24006C24.28 3.65006 26.13 5.68006 27.33 8.08006C28.53 10.4901 29.03 13.1801 28.78 15.8501C28.53 18.5301 27.54 21.0801 25.92 23.2201C24.3 25.3601 22.11 27.0101 19.61 27.9801C17.1 28.9501 14.38 29.2001 11.74 28.7001C9.1 28.2001 6.65 26.9801 4.67 25.1701C2.69 23.3601 1.25 21.0301 0.52 18.4401L6.06 20.7301C6.26 21.7201 6.83 22.6001 7.64 23.2001C8.46 23.8001 9.46 24.0801 10.47 23.9801C11.48 23.8801 12.41 23.4101 13.09 22.6601C13.77 21.9101 14.15 20.9301 14.15 19.9201V19.7301L19.06 16.2301H19.17C20.25 16.2301 21.3 15.9101 22.2 15.3101C23.1 14.7101 23.79 13.8601 24.21 12.8701C24.62 11.8701 24.73 10.7801 24.52 9.72006C24.31 8.66006 23.79 7.69006 23.03 6.93006C22.27 6.17006 21.3 5.65006 20.24 5.44006C19.18 5.23006 18.09 5.34006 17.09 5.75006C16.09 6.16006 15.24 6.86006 14.65 7.76006C14.05 8.66006 13.73 9.71006 13.73 10.7901V10.8501L10.29 15.8401H10.06C9.24 15.8401 8.44 16.0901 7.76 16.5501L0 13.3401C0.29 9.72006 1.93 6.35006 4.6 3.89006ZM29.89 5.03006C30.04 4.80006 30.13 4.53006 30.13 4.26006C30.13 4.08006 30.1 3.89006 30.04 3.72006C29.97 3.55006 29.87 3.39006 29.74 3.26006C29.61 3.13006 29.45 3.03006 29.28 2.96006C29.11 2.89006 28.92 2.86006 28.74 2.86006C28.46 2.86006 28.19 2.94006 27.96 3.09006C27.73 3.24006 27.55 3.46006 27.44 3.72006C27.33 3.97006 27.31 4.26006 27.36 4.53006C27.41 4.80006 27.55 5.05006 27.74 5.25006C27.93 5.45006 28.18 5.58006 28.45 5.63006C28.72 5.68006 29 5.66006 29.26 5.55006C29.52 5.45006 29.73 5.27006 29.89 5.04006V5.03006ZM27.76 4.91006C27.63 4.72006 27.56 4.49006 27.55 4.26006H27.54C27.54 4.10006 27.56 3.94006 27.62 3.79006C27.68 3.64006 27.77 3.51006 27.88 3.39006C27.99 3.28006 28.13 3.19006 28.27 3.13006C28.42 3.07006 28.58 3.04006 28.74 3.05006C28.97 3.05006 29.2 3.12006 29.4 3.25006C29.59 3.38006 29.75 3.56006 29.84 3.78006C29.93 4.00006 29.95 4.23006 29.91 4.46006C29.87 4.69006 29.75 4.90006 29.59 5.07006C29.43 5.24006 29.22 5.35006 28.99 5.40006C28.76 5.45006 28.52 5.43006 28.31 5.34006C28.09 5.25006 27.91 5.10006 27.78 4.91006H27.76ZM29.23 3.93006C29.23 3.73006 29.12 3.54006 28.75 3.54006H28.27V4.92006H28.47V4.37006H28.77L29.05 4.92006H29.3L28.98 4.31006C29.05 4.28006 29.12 4.22006 29.16 4.16006C29.2 4.09006 29.23 4.01006 29.23 3.93006ZM28.74 4.17006H28.48V3.71006H28.74C28.94 3.71006 29.01 3.80006 29.01 3.93006C29.01 3.96006 29.01 4.00006 28.99 4.03006C28.98 4.06006 28.96 4.09006 28.93 4.11006C28.9 4.13006 28.87 4.15006 28.84 4.16006C28.81 4.17006 28.77 4.17006 28.74 4.17006ZM9.05 21.9701L7.27 21.2401C7.53 21.7801 7.94 22.2301 8.45 22.5401C8.96 22.8501 9.55 23.0001 10.14 22.9801C10.74 22.9601 11.31 22.7701 11.8 22.4301C12.29 22.0901 12.67 21.6101 12.89 21.0601C13.11 20.5101 13.17 19.9001 13.05 19.3201C12.93 18.7401 12.65 18.2001 12.23 17.7701C11.81 17.3401 11.28 17.0501 10.7 16.9201C10.12 16.7901 9.51 16.8401 8.95 17.0501L10.78 17.8101C11.32 18.0501 11.74 18.4901 11.96 19.0401C12.18 19.5901 12.17 20.2001 11.95 20.7401C11.72 21.2801 11.29 21.7201 10.75 21.9501C10.21 22.1801 9.6 22.1901 9.05 21.9801V21.9701ZM22.18 8.77006C22.58 9.37006 22.79 10.0701 22.79 10.7901C22.79 11.7501 22.4 12.6701 21.72 13.3501C21.04 14.0301 20.12 14.4101 19.16 14.4101C18.44 14.4101 17.74 14.2001 17.14 13.8001C16.54 13.4001 16.08 12.8301 15.8 12.1701C15.53 11.5101 15.45 10.7801 15.59 10.0701C15.73 9.37006 16.08 8.72006 16.58 8.21006C17.09 7.70006 17.73 7.36006 18.44 7.22006C19.14 7.08006 19.87 7.15006 20.54 7.43006C21.2 7.71006 21.77 8.17006 22.17 8.77006H22.18ZM16.9 9.27006C16.6 9.72006 16.44 10.2501 16.44 10.7901C16.44 11.5101 16.73 12.2101 17.24 12.7201C17.75 13.2301 18.44 13.5201 19.17 13.5201C19.71 13.5201 20.24 13.3601 20.69 13.0601C21.14 12.7601 21.49 12.3301 21.69 11.8401C21.9 11.3401 21.95 10.7901 21.84 10.2601C21.73 9.73006 21.47 9.25006 21.09 8.86006C20.71 8.48006 20.22 8.22006 19.69 8.11006C19.16 8.01006 18.61 8.06006 18.11 8.27006C17.61 8.48006 17.19 8.83006 16.89 9.28006L16.9 9.27006Z" fill="#FAF2FD"/>
</g>
</svg>
